<svg width="38" height="38" viewBox="0 0 38 38" fill="none" xmlns="http://www.w3.org/2000/svg">
<g filter="url(#filter0_d_10_21)">
<path d="M6.59123 7.8325C6.83304 7.525 7.15151 7.10875 7.40654 6.81125C8.17032 5.99125 8.26942 5.88375 8.96449 5.2775C9.17063 5.1175 9.41509 4.925 9.65426 4.74375C7.89018 6.15625 7.66554 7.72 9.28427 8.68625C9.28163 8.68625 9.28163 8.68625 9.28163 8.68875C11.5452 9.97875 16.5058 9.7 20.4198 8.0475C24.211 6.4475 25.6103 4.15875 23.7392 2.79875C22.0967 2.5075 20.1384 2.47375 18.0664 2.73625L17.851 2.4L18.0294 1.8425C19.2477 1.73875 20.4053 1.76375 21.4043 1.925C21.6461 1.96375 21.9646 2.03 22.2024 2.0775C22.6623 2.18375 22.912 2.2475 23.212 2.33875C23.5185 2.425 23.7802 2.51125 24.2361 2.67125C24.6827 2.8375 24.8756 2.9125 25.2337 3.08125C25.6348 3.25433 26.0244 3.4501 26.4005 3.6675C29.3817 5.44125 27.5277 8.6775 22.2672 10.895C17.0211 13.105 10.3361 13.4525 7.34047 11.7C7.33915 11.6975 7.33518 11.695 7.32725 11.6925H7.33254C5.69663 10.7125 5.52484 9.29 6.59123 7.8325V7.8325ZM20.2401 20.2325L20.1978 18.24L18.7007 16.665C13.7546 17.725 8.89313 17.4975 6.18952 15.9913C6.18027 15.9813 6.1578 15.9713 6.14855 15.9613C4.61835 15.07 4.24043 13.92 4.35539 12.67C3.99729 14.4987 3.96822 15.1587 4.01975 16.7237C4.08318 17.7037 4.68178 18.6075 5.88559 19.32L5.89484 19.33C8.77685 21.025 14.7814 21.3925 20.2401 20.2325ZM26.4838 22.5137C19.5028 25.1625 10.7656 25.3188 6.97047 22.8675C7.38032 23.815 7.93798 24.6989 8.62488 25.49C12.1081 27.74 20.1278 27.5963 26.5327 25.165C30.2815 23.7438 32.6469 21.8525 33.2679 20.08L33.4424 19.5463C33.856 18.1938 33.9339 17.0675 34 16.065C33.9247 18.2413 31.2145 20.7162 26.4838 22.5137V22.5137ZM11.0735 27.615C11.2928 27.8125 11.9826 28.6138 15.4777 29.4988C16.4225 29.6963 18.8011 30.33 23.1948 29.4088L23.2212 29.03L22.8737 28.515C18.7971 29.4275 14.2686 29.1225 11.0735 27.615V27.615ZM21.1611 11.8537L24.873 14.515C24.873 14.515 25.6672 15.0562 24.9179 15.4362C24.1713 15.8125 22.2539 16.7338 22.2539 16.7338L20.3604 16.065L19.4103 16.465L21.0858 17.8412L21.099 19.9825L22.0835 19.5687L22.7363 17.76C22.7363 17.76 24.7409 17.03 25.5363 16.755C26.3358 16.4863 26.2288 17.4063 26.2288 17.4063L25.835 21.795L27.1432 21.245L29.2971 15.3237C29.2971 15.3237 30.4388 14.7988 31.2422 14.3375C32.0443 13.8763 32.3192 13.1113 32.3192 13.1113C32.3192 13.1113 31.5369 12.7925 30.6357 13.0488C29.7345 13.3025 28.5597 13.755 28.5597 13.755L22.4654 11.3063L21.1611 11.8537V11.8537ZM13.308 3.43375L15.8279 5.3325L16.5164 5.235L15.1447 3.53125C15.1447 3.53125 14.8461 3.17875 15.2478 3.095C15.6522 3.01 16.6749 2.8125 16.6749 2.8125L17.444 3.39375L17.962 3.32125L17.3753 2.43875L17.6845 1.46L17.1837 1.52875L16.5904 2.27375C16.5904 2.27375 15.5491 2.36625 15.1395 2.39875C14.7272 2.42875 14.9042 2.01 14.9042 2.01L15.6944 0L15.002 0.09625L13.1785 2.6075C13.1785 2.6075 12.5706 2.7125 12.1306 2.83125C11.6892 2.94875 11.4567 3.27125 11.4567 3.27125C11.4567 3.27125 11.7804 3.51875 12.2363 3.51C12.6962 3.50125 13.308 3.43375 13.308 3.43375V3.43375ZM25.7623 27.8312L24.1317 27.025L23.7564 27.1487L24.7224 27.9662C24.7224 27.9662 24.9285 28.1325 24.7118 28.2212C24.4951 28.3087 23.9427 28.5238 23.9427 28.5238L23.4868 28.3313L23.2159 28.4238L23.5952 28.8063L23.5582 29.365L23.841 29.2725L24.0524 28.8188C24.0524 28.8188 24.6259 28.6575 24.8545 28.6C25.0818 28.5412 25.0302 28.7937 25.0302 28.7937L24.8148 30L25.1915 29.8762L25.9301 28.2812C25.9301 28.2812 26.2565 28.16 26.4904 28.0487C26.7243 27.9375 26.8168 27.7325 26.8168 27.7325C26.8168 27.7325 26.6093 27.625 26.353 27.6787C26.0953 27.73 25.7623 27.8312 25.7623 27.8312Z" fill="black"/>
</g>
<defs>
<filter id="filter0_d_10_21" x="0" y="0" width="38" height="38" filterUnits="userSpaceOnUse" color-interpolation-filters="sRGB">
<feFlood flood-opacity="0" result="BackgroundImageFix"/>
<feColorMatrix in="SourceAlpha" type="matrix" values="0 0 0 0 0 0 0 0 0 0 0 0 0 0 0 0 0 0 127 0" result="hardAlpha"/>
<feOffset dy="4"/>
<feGaussianBlur stdDeviation="2"/>
<feComposite in2="hardAlpha" operator="out"/>
<feColorMatrix type="matrix" values="0 0 0 0 0 0 0 0 0 0 0 0 0 0 0 0 0 0 0.25 0"/>
<feBlend mode="normal" in2="BackgroundImageFix" result="effect1_dropShadow_10_21"/>
<feBlend mode="normal" in="SourceGraphic" in2="effect1_dropShadow_10_21" result="shape"/>
</filter>
</defs>
</svg>
